{"title":"Mercenary Fighters (1988)","uid":8095298,"size":2511749045,"categoryP":"video","categoryS":"movies","magnet":"?xt=urn:btih:f27abbc5cd8146ba755cb5f60b6e17be6764c7d4&amp;dn=Mercenary+Fighters+%281988%29&amp;tr=udp%3A%2F%2Ftracker.openbittorrent.com%3A80&amp;tr=udp%3A%2F%2Fopen.demonii.com%3A1337&amp;tr=udp%3A%2F%2Ftracker.coppersurfer.tk%3A6969&amp;tr=udp%3A%2F%2Fexodus.desync.com%3A6969","seeders":1,"leechers":1,"uploader":"RadioResearch","files":3,"time":1359822214,"description":"SEEDBOX SUPPORTED!\n\n*******************************************************************************\n                           Mercenary Fighters (1988)\n*******************************************************************************\n\n-------------------------------------------------------------------------------\n                              General Information\n-------------------------------------------------------------------------------\nType.................: Movie\n\n\n\nVideo Format.........: AVI\nVideo Bitrate........: 3397\nResolution...........: 720 x 404\nColor................: 8 bit\nFPS..................: 29.97\nSource...............: DVD 16x9\nOriginal Format......: NTSC\nGenre................: War\nIMDb Rating..........: 4.5\nMovie Information....: http://www.imdb.com/title/tt0093525\n\n-------------------------------------------------------------------------------\n                               Post Information\n-------------------------------------------------------------------------------\nPosted by............: RadioResearch\nPosted on............: 2/2/2013\n\n-------------------------------------------------------------------------------\n                                 Release Notes\n-------------------------------------------------------------------------------\nThe president of an African country wants to boost his economy with a new dam. \nHe ignores the protests of the tribes in the flooded region, so they declare \nrebellion. To avoid bad publicity, the president doesn't use his army, but hires \nfour international mercenaries, who shall find tribes leader Kuruba and smother \nthe protest. However after learning about the tribes motivation, the Vietnam \nveterans T.J. and Cliff realize how they're being used and reconsider.\n\nEnjoy!\n\nRadioResearch\n\nGeneral\nComplete name                            : G:AVIMercenary Fighters \n(1988)MERCENARY_FIGHTERS_Title1.avi\nFormat                                   : AVI\nFormat/Info                              : Audio Video Interleave\nFormat profile                           : OpenDML\nFile size                                : 2.34 GiB\nDuration                                 : 1h 33mn\nOverall bit rate                         : 3 595 Kbps\nMovie name                               : MERCENARY_FIGHTERS\nWriting application                      : MEncoder 5.0\nWriting library                          : [= DigiArty videodll! =]\n\nVideo\nID                                       : 0\nFormat                                   : MPEG-4 Visual\nFormat profile                           : Simple@L1\nFormat settings, BVOP                    : No\nFormat settings, QPel                    : No\nFormat settings, GMC                     : No warppoints\nFormat settings, Matrix                  : Default (H.263)\nCodec ID                                 : DX50\nCodec ID/Hint                            : DivX 5\nDuration                                 : 1h 33mn\nBit rate                                 : 3 397 Kbps\nWidth                                    : 720 pixels\nHeight                                   : 404 pixels\nDisplay aspect ratio                     : 16:9\nFrame rate                               : 29.970 fps\nColor space                              : YUV\nChroma subsampling                       : 4:2:0\nBit depth                                : 8 bits\nScan type                                : Progressive\nCompression mode                         : Lossy\nBits/(Pixel*Frame)                       : 0.390\nStream size                              : 2.21 GiB (94%)\nWriting library                          : Lavc54.71.100\n\nAudio\nID                                       : 1\nFormat                                   : AC-3\nFormat/Info                              : Audio Coding 3\nMode extension                           : CM (complete main)\nFormat settings, Endianness              : Big\nCodec ID                                 : 2000\nDuration                                 : 1h 33mn\nBit rate mode                            : Constant\nBit rate                                 : 192 Kbps\nChannel(s)                               : 2 channels\nChannel positions                        : Front: L R\nSampling rate                            : 48.0 KHz\nBit depth                                : 16 bits\nCompression mode                         : Lossy\nStream size                              : 128 MiB (5%)\nAlignment                                : Split accross interleaves\nInterleave, duration                     : 500 ms (14.98 video frames)\nInterleave, preload duration             : 500 ms\n\n\n\n\n-------------------------------------------------------------------------------\nGenerated with Cool NFO Creator - http://fly.to/coolbeans\n-------------------------------------------------------------------------------\n","torrent":{"xt":"urn:btih:f27abbc5cd8146ba755cb5f60b6e17be6764c7d4","amp;dn":"Mercenary+Fighters+%281988%29","amp;tr":["udp%3A%2F%2Ftracker.openbittorrent.com%3A80","udp%3A%2F%2Fopen.demonii.com%3A1337","udp%3A%2F%2Ftracker.coppersurfer.tk%3A6969","udp%3A%2F%2Fexodus.desync.com%3A6969"],"infoHash":"f27abbc5cd8146ba755cb5f60b6e17be6764c7d4","infoHashBuffer":{"type":"Buffer","data":[242,122,187,197,205,129,70,186,117,92,181,246,11,110,23,190,103,100,199,212]},"announce":[],"urlList":[]}}